<?xml version="1.0" encoding="utf-8"?>
<!-- Generator: Adobe Illustrator 25.0.0, SVG Export Plug-In . SVG Version: 6.00 Build 0)  -->
<svg version="1.1" id="Warstwa_4" xmlns="http://www.w3.org/2000/svg" xmlns:xlink="http://www.w3.org/1999/xlink" x="0px" y="0px"
	 viewBox="0 0 100 100" style="enable-background:new 0 0 100 100;" xml:space="preserve">
<path class="st0" d="M55.3,93.6c-12.4,0-23.1-4.1-32.1-12.3c-9.4-8.6-14.1-19-14.1-31.2s4.7-22.6,14.1-31.2
	c9-8.3,19.7-12.4,32.1-12.4H91v28.7H55.3c-4,0-7.5,1.5-10.7,4.4c-3.1,3-4.7,6.4-4.7,10.5s1.6,7.6,4.7,10.5c3,2.9,6.6,4.4,10.7,4.4
	H91v28.6H55.3z M87.8,68.2H55.3c-5,0-9.4-1.8-13-5.3c-3.7-3.5-5.6-7.8-5.6-12.8c0-4.9,1.9-9.1,5.6-12.7c3.8-3.6,8.1-5.4,13-5.4h32.5
	V9.7H55.3c-11.4,0-21.4,3.9-29.9,11.6c-8.8,7.9-13.2,17.5-13.2,28.8s4.4,21,13.2,28.9c8.5,7.7,18.5,11.6,29.9,11.6h32.5V68.2z"/>
</svg>
