<?xml version="1.0" encoding="utf-8"?>
<!-- Generator: Adobe Illustrator 25.0.0, SVG Export Plug-In . SVG Version: 6.00 Build 0)  -->
<svg version="1.1" id="Warstwa_12" xmlns="http://www.w3.org/2000/svg" xmlns:xlink="http://www.w3.org/1999/xlink" x="0px" y="0px"
	 viewBox="0 0 450 450" style="enable-background:new 0 0 450 450;" xml:space="preserve">
<path class="st0" d="M219.2,233.4c-27.2-0.2-54.3,1.3-81.5-0.4c-37.1-2.3-66.2-32.5-70.2-69.3c-4.2-37.9,25.1-83.3,75.4-83.8
	c52.3-0.4,104.6-0.7,156.9,0.3c40.7,0.8,74.2,38.6,71.3,80.1c-2.9,41.7-33.1,71.6-75,73C270.5,234.1,244.8,233.4,219.2,233.4
	 M220,85.2c-26.5-0.2-53-1.2-79.5,0c-30.6,1.5-52,17.1-63.1,45.1c-11,27.7-5.4,53.5,14.5,75.6c14.7,16.3,34,22.6,55.7,22.6
	c43-0.1,86,0.1,129-0.1c10.5,0,21,0.8,31.4-1.3c34.8-7.1,62.1-37.2,57.7-80.2c-3.1-30.8-31.9-62.4-69.2-61.8
	C270.9,85.5,245.4,85.2,220,85.2"/>
<path class="st0" d="M230.5,157.1c-1.3-27.2,21.2-49.6,41.7-54.3c7.5-1.7,14.8-1.7,22.2-1.6c1.8,0,3.9-0.1,4.6,2.2
	c0.7,2.4-1.2,3.5-2.9,4.7c-13.1,8.6-19.3,20.8-18.7,36.4c1,24.6,26.1,41.7,50.6,34.5c1.9-0.6,4-2.6,5.9-0.3c2,2.4,0.4,4.7-0.9,6.9
	c-19.6,33.2-66.8,36.1-90.6,5.8C234.5,181,230,169.7,230.5,157.1 M324.2,185.5c-2.5,0.1-5,0.4-7.5,0.4c-17.8-0.4-31.3-8.4-39.8-24
	c-8.5-15.7-6.5-31.2,3.2-45.8c2.1-3.1,4.8-5.7,7.6-8.9c-4.2-1-7.7-0.2-11.3,0.4c-22.3,3.6-40.3,24-40.8,46.5
	c-0.7,28,17.8,50,45.8,52.7c18,1.8,33.3-4.8,44.1-20c0.6-0.3,1.1-0.9,0.7-1.4C325.7,184.7,324.9,185.2,324.2,185.5"/>
<path class="st0" d="M324.2,185.5c0.7-0.4,1.5-0.8,2.1-0.1c0.4,0.5-0.1,1.1-0.7,1.4C325.1,186.4,324.7,186,324.2,185.5"/>
<path d="M141.3,368l-25-31.9V368h-34v-87.1h33.5l25,32v-32h34V368H141.3z M171.6,284.1h-27.7v38.2l-29.7-38.2H85.5v80.9h27.7v-38.2
	l29.7,38.2h28.8V284.1z"/>
<path class="st1" d="M141.3,368l-25-31.9V368h-34v-87.1h33.5l25,32v-32h34V368H141.3z M171.6,284.1h-27.7v38.2l-29.7-38.2H85.5v80.9
	h27.7v-38.2l29.7,38.2h28.8V284.1z"/>
<path d="M270.5,324.5c0,12.2-4.7,22.6-14.2,31.2c-9.1,8.2-19.8,12.3-32.1,12.3c-12.4,0-23.1-4.1-32.1-12.3
	c-9.4-8.6-14.2-18.9-14.2-31.2c0-12.2,4.7-22.6,14.2-31.2c9-8.3,19.7-12.4,32.1-12.4c12.4,0,23.1,4.1,32.1,12.4
	C265.8,301.9,270.5,312.3,270.5,324.5 M267.4,324.5c0-11.3-4.4-20.9-13.2-28.8c-8.6-7.7-18.5-11.6-29.9-11.6
	c-11.4,0-21.4,3.9-29.9,11.6c-8.8,7.9-13.2,17.5-13.2,28.8c0,11.3,4.4,21,13.2,28.9c8.5,7.7,18.5,11.6,29.9,11.6
	c11.4,0,21.4-3.9,29.9-11.6C263,345.4,267.4,335.8,267.4,324.5 M242.9,324.5c0,4.9-1.9,9.2-5.6,12.7c-3.8,3.6-8.2,5.4-13,5.4
	c-5,0-9.4-1.8-13-5.3c-3.7-3.5-5.6-7.8-5.6-12.8c0-4.9,1.9-9.1,5.6-12.7c3.7-3.6,8.1-5.4,13-5.4c4.9,0,9.2,1.8,12.9,5.4
	C241,315.4,242.9,319.6,242.9,324.5 M239.7,324.5c0-3.9-1.6-7.4-4.7-10.4c-3.1-3-6.7-4.5-10.7-4.5c-4,0-7.5,1.5-10.7,4.4
	c-3.1,3-4.7,6.4-4.7,10.5c0,4.1,1.6,7.6,4.7,10.5c3,2.9,6.6,4.4,10.7,4.4c4.1,0,7.7-1.5,10.7-4.4
	C238.1,332.1,239.7,328.6,239.7,324.5"/>
<path class="st1" d="M270.5,324.5c0,12.2-4.7,22.6-14.2,31.2c-9.1,8.2-19.8,12.3-32.1,12.3c-12.4,0-23.1-4.1-32.1-12.3
	c-9.4-8.6-14.2-18.9-14.2-31.2c0-12.2,4.7-22.6,14.2-31.2c9-8.3,19.7-12.4,32.1-12.4c12.4,0,23.1,4.1,32.1,12.4
	C265.8,301.9,270.5,312.3,270.5,324.5z M267.4,324.5c0-11.3-4.4-20.9-13.2-28.8c-8.6-7.7-18.5-11.6-29.9-11.6
	c-11.4,0-21.4,3.9-29.9,11.6c-8.8,7.9-13.2,17.5-13.2,28.8c0,11.3,4.4,21,13.2,28.9c8.5,7.7,18.5,11.6,29.9,11.6
	c11.4,0,21.4-3.9,29.9-11.6C263,345.4,267.4,335.8,267.4,324.5z M242.9,324.5c0,4.9-1.9,9.2-5.6,12.7c-3.8,3.6-8.2,5.4-13,5.4
	c-5,0-9.4-1.8-13-5.3c-3.7-3.5-5.6-7.8-5.6-12.8c0-4.9,1.9-9.1,5.6-12.7c3.7-3.6,8.1-5.4,13-5.4c4.9,0,9.2,1.8,12.9,5.4
	C241,315.4,242.9,319.6,242.9,324.5z M239.7,324.5c0-3.9-1.6-7.4-4.7-10.4c-3.1-3-6.7-4.5-10.7-4.5c-4,0-7.5,1.5-10.7,4.4
	c-3.1,3-4.7,6.4-4.7,10.5c0,4.1,1.6,7.6,4.7,10.5c3,2.9,6.6,4.4,10.7,4.4c4.1,0,7.7-1.5,10.7-4.4
	C238.1,332.1,239.7,328.6,239.7,324.5z"/>
<path d="M320,368c-12.4,0-23.1-4.1-32.1-12.3c-9.4-8.6-14.1-19-14.1-31.2c0-12.2,4.7-22.6,14.1-31.2c9-8.3,19.7-12.4,32.1-12.4h35.7
	v28.7H320c-4,0-7.5,1.5-10.7,4.4c-3.1,3-4.7,6.4-4.7,10.5c0,4.1,1.6,7.6,4.7,10.5c3,2.9,6.6,4.4,10.7,4.4h35.7V368H320z
	 M352.5,342.6H320c-5,0-9.4-1.8-13-5.3c-3.7-3.5-5.6-7.8-5.6-12.8c0-4.9,1.9-9.1,5.6-12.7c3.8-3.6,8.1-5.4,13-5.4h32.5v-22.3H320
	c-11.4,0-21.4,3.9-29.9,11.6c-8.8,7.9-13.2,17.5-13.2,28.8c0,11.3,4.4,21,13.2,28.9c8.5,7.7,18.5,11.6,29.9,11.6h32.5V342.6z"/>
<path class="st1" d="M320,368c-12.4,0-23.1-4.1-32.1-12.3c-9.4-8.6-14.1-19-14.1-31.2c0-12.2,4.7-22.6,14.1-31.2
	c9-8.3,19.7-12.4,32.1-12.4h35.7v28.7H320c-4,0-7.5,1.5-10.7,4.4c-3.1,3-4.7,6.4-4.7,10.5c0,4.1,1.6,7.6,4.7,10.5
	c3,2.9,6.6,4.4,10.7,4.4h35.7V368H320z M352.5,342.6H320c-5,0-9.4-1.8-13-5.3c-3.7-3.5-5.6-7.8-5.6-12.8c0-4.9,1.9-9.1,5.6-12.7
	c3.8-3.6,8.1-5.4,13-5.4h32.5v-22.3H320c-11.4,0-21.4,3.9-29.9,11.6c-8.8,7.9-13.2,17.5-13.2,28.8c0,11.3,4.4,21,13.2,28.9
	c8.5,7.7,18.5,11.6,29.9,11.6h32.5V342.6z"/>
<path d="M244.9,4.6c0.1,1.5,0.1,2.9,0.2,4.9h-235v429.9h429.5V214.6h5.2v230H4.9c0-146.7,0-293.3,0-440
	C84.9,4.6,164.9,4.6,244.9,4.6"/>
</svg>
