<?xml version="1.0" encoding="utf-8"?>
<!-- Generator: Adobe Illustrator 25.0.0, SVG Export Plug-In . SVG Version: 6.00 Build 0)  -->
<svg version="1.1" id="Warstwa_100" xmlns="http://www.w3.org/2000/svg" xmlns:xlink="http://www.w3.org/1999/xlink" x="0px" y="0px"
	 viewBox="0 0 280 90" style="enable-background:new 0 0 280 90;" xml:space="preserve">
<path d="M62.2,88.8l-25-31.9v31.9h-34V1.7h33.5l25,32v-32h34v87.1H62.2z M92.5,4.9H64.8v38.2L35.2,4.9H6.4v80.9H34V47.6l29.7,38.2
	h28.8V4.9z"/>
<path class="st0" d="M62.2,88.8l-25-31.9v31.9h-34V1.7h33.5l25,32v-32h34v87.1H62.2z M92.5,4.9H64.8v38.2L35.2,4.9H6.4v80.9H34V47.6
	l29.7,38.2h28.8V4.9z"/>
<path d="M191.4,45.3c0,12.2-4.7,22.6-14.2,31.2c-9.1,8.2-19.8,12.3-32.1,12.3c-12.4,0-23.1-4.1-32.1-12.3
	c-9.4-8.6-14.2-18.9-14.2-31.2c0-12.2,4.7-22.6,14.2-31.2c9-8.3,19.7-12.4,32.1-12.4c12.4,0,23.1,4.1,32.1,12.4
	C186.7,22.7,191.4,33.1,191.4,45.3 M188.3,45.3c0-11.3-4.4-20.9-13.2-28.8c-8.6-7.7-18.5-11.6-29.9-11.6c-11.4,0-21.4,3.9-29.9,11.6
	c-8.8,7.9-13.2,17.5-13.2,28.8c0,11.3,4.4,21,13.2,28.9c8.5,7.7,18.5,11.6,29.9,11.6c11.4,0,21.4-3.9,29.9-11.6
	C183.9,66.3,188.3,56.7,188.3,45.3 M163.8,45.3c0,4.9-1.9,9.2-5.6,12.7c-3.8,3.6-8.2,5.4-13,5.4c-5,0-9.4-1.8-13-5.3
	c-3.7-3.5-5.6-7.8-5.6-12.8c0-4.9,1.9-9.1,5.6-12.7c3.7-3.6,8.1-5.4,13-5.4c4.9,0,9.2,1.8,12.9,5.4
	C161.9,36.2,163.8,40.4,163.8,45.3 M160.6,45.3c0-3.9-1.6-7.4-4.7-10.4c-3.1-3-6.7-4.5-10.7-4.5c-4,0-7.5,1.5-10.7,4.4
	c-3.1,3-4.7,6.4-4.7,10.5c0,4.1,1.6,7.6,4.7,10.5c3,2.9,6.6,4.4,10.7,4.4c4.1,0,7.7-1.5,10.7-4.4C159,52.9,160.6,49.4,160.6,45.3"/>
<path class="st0" d="M191.4,45.3c0,12.2-4.7,22.6-14.2,31.2c-9.1,8.2-19.8,12.3-32.1,12.3c-12.4,0-23.1-4.1-32.1-12.3
	c-9.4-8.6-14.2-18.9-14.2-31.2c0-12.2,4.7-22.6,14.2-31.2c9-8.3,19.7-12.4,32.1-12.4c12.4,0,23.1,4.1,32.1,12.4
	C186.7,22.7,191.4,33.1,191.4,45.3z M188.3,45.3c0-11.3-4.4-20.9-13.2-28.8c-8.6-7.7-18.5-11.6-29.9-11.6
	c-11.4,0-21.4,3.9-29.9,11.6c-8.8,7.9-13.2,17.5-13.2,28.8c0,11.3,4.4,21,13.2,28.9c8.5,7.7,18.5,11.6,29.9,11.6
	c11.4,0,21.4-3.9,29.9-11.6C183.9,66.3,188.3,56.7,188.3,45.3z M163.8,45.3c0,4.9-1.9,9.2-5.6,12.7c-3.8,3.6-8.2,5.4-13,5.4
	c-5,0-9.4-1.8-13-5.3c-3.7-3.5-5.6-7.8-5.6-12.8c0-4.9,1.9-9.1,5.6-12.7c3.7-3.6,8.1-5.4,13-5.4c4.9,0,9.2,1.8,12.9,5.4
	C161.9,36.2,163.8,40.4,163.8,45.3z M160.6,45.3c0-3.9-1.6-7.4-4.7-10.4c-3.1-3-6.7-4.5-10.7-4.5c-4,0-7.5,1.5-10.7,4.4
	c-3.1,3-4.7,6.4-4.7,10.5c0,4.1,1.6,7.6,4.7,10.5c3,2.9,6.6,4.4,10.7,4.4c4.1,0,7.7-1.5,10.7-4.4C159,52.9,160.6,49.4,160.6,45.3z"
	/>
<path d="M240.9,88.8c-12.4,0-23.1-4.1-32.1-12.3c-9.4-8.6-14.1-19-14.1-31.2c0-12.2,4.7-22.6,14.1-31.2c9-8.3,19.7-12.4,32.1-12.4
	h35.7v28.7h-35.7c-4,0-7.5,1.5-10.7,4.4c-3.1,3-4.7,6.4-4.7,10.5c0,4.1,1.6,7.6,4.7,10.5c3,2.9,6.6,4.4,10.7,4.4h35.7v28.6H240.9z
	 M273.4,63.4h-32.5c-5,0-9.4-1.8-13-5.3c-3.7-3.5-5.6-7.8-5.6-12.8c0-4.9,1.9-9.1,5.6-12.7c3.8-3.6,8.1-5.4,13-5.4h32.5V4.9h-32.5
	c-11.4,0-21.4,3.9-29.9,11.6c-8.8,7.9-13.2,17.5-13.2,28.8c0,11.3,4.4,21,13.2,28.9c8.5,7.7,18.5,11.6,29.9,11.6h32.5V63.4z"/>
<path class="st0" d="M240.9,88.8c-12.4,0-23.1-4.1-32.1-12.3c-9.4-8.6-14.1-19-14.1-31.2c0-12.2,4.7-22.6,14.1-31.2
	c9-8.3,19.7-12.4,32.1-12.4h35.7v28.7h-35.7c-4,0-7.5,1.5-10.7,4.4c-3.1,3-4.7,6.4-4.7,10.5c0,4.1,1.6,7.6,4.7,10.5
	c3,2.9,6.6,4.4,10.7,4.4h35.7v28.6H240.9z M273.4,63.4h-32.5c-5,0-9.4-1.8-13-5.3c-3.7-3.5-5.6-7.8-5.6-12.8c0-4.9,1.9-9.1,5.6-12.7
	c3.8-3.6,8.1-5.4,13-5.4h32.5V4.9h-32.5c-11.4,0-21.4,3.9-29.9,11.6c-8.8,7.9-13.2,17.5-13.2,28.8c0,11.3,4.4,21,13.2,28.9
	c8.5,7.7,18.5,11.6,29.9,11.6h32.5V63.4z"/>
</svg>
