<?xml version="1.0" encoding="utf-8"?>
<!-- Generator: Adobe Illustrator 25.0.0, SVG Export Plug-In . SVG Version: 6.00 Build 0)  -->
<svg version="1.1" id="Warstwa_22" xmlns="http://www.w3.org/2000/svg" xmlns:xlink="http://www.w3.org/1999/xlink" x="0px" y="0px"
	 viewBox="0 0 105 112" style="enable-background:new 0 0 105 112;" xml:space="preserve">
<path class="st0" d="M0.4,56.4C-0.8,29.2,21.5,6.8,42.1,2.1c7.5-1.7,14.8-1.7,22.2-1.6c1.8,0,3.9-0.1,4.6,2.1
	c0.7,2.5-1.2,3.5-2.9,4.7c-13.1,8.6-19.3,20.8-18.7,36.4c1,24.6,26.1,41.7,50.6,34.5c1.9-0.6,4-2.6,5.9-0.3c2,2.4,0.4,4.7-0.9,6.9
	c-19.5,33.2-66.8,36.1-90.6,5.8C4.3,80.4-0.2,69.1,0.4,56.4 M94.1,84.9c-2.5,0.1-5,0.4-7.5,0.4c-17.8-0.4-31.3-8.4-39.8-24
	c-8.5-15.7-6.5-31.2,3.2-45.8c2.1-3.1,4.8-5.7,7.5-8.9c-4.2-1-7.7-0.2-11.3,0.4C23.9,10.6,5.9,31,5.4,53.5
	c-0.7,28,17.8,50,45.9,52.7c18,1.8,33.3-4.8,44.1-20c0.6-0.3,1.1-0.9,0.7-1.4C95.6,84,94.8,84.5,94.1,84.9"/>
</svg>
