<?xml version="1.0" encoding="utf-8"?>
<!-- Generator: Adobe Illustrator 25.0.0, SVG Export Plug-In . SVG Version: 6.00 Build 0)  -->
<svg version="1.1" id="Warstwa_3" xmlns="http://www.w3.org/2000/svg" xmlns:xlink="http://www.w3.org/1999/xlink" x="0px" y="0px"
	 viewBox="0 0 100 100" style="enable-background:new 0 0 100 100;" xml:space="preserve">
<path class="st0" d="M96.3,50.1c0,12.2-4.7,22.6-14.2,31.2C73,89.5,62.3,93.6,50,93.6c-12.4,0-23.1-4.1-32.1-12.3
	C8.5,72.7,3.7,62.4,3.7,50.1c0-12.2,4.7-22.6,14.2-31.2c9-8.3,19.7-12.4,32.1-12.4s23.1,4.1,32.1,12.4C91.6,27.6,96.3,38,96.3,50.1
	 M93.1,50.1c0-11.3-4.4-20.9-13.2-28.8C71.3,13.6,61.4,9.7,50,9.7s-21.4,3.9-29.9,11.6C11.3,29.2,6.9,38.8,6.9,50.1
	s4.4,21,13.2,28.9c8.5,7.7,18.5,11.6,29.9,11.6S71.4,86.7,79.9,79C88.8,71.1,93.1,61.5,93.1,50.1 M68.7,50.1c0,4.9-1.9,9.2-5.6,12.7
	c-3.8,3.6-8.2,5.4-13,5.4c-5,0-9.4-1.8-13-5.3c-3.7-3.5-5.6-7.8-5.6-12.8c0-4.9,1.9-9.1,5.6-12.7s8.1-5.4,13-5.4s9.2,1.8,12.9,5.4
	C66.8,41,68.7,45.2,68.7,50.1 M65.5,50.1c0-3.9-1.6-7.4-4.7-10.4s-6.7-4.5-10.7-4.5s-7.5,1.5-10.7,4.4c-3.1,3-4.7,6.4-4.7,10.5
	s1.6,7.6,4.7,10.5c3,2.9,6.6,4.4,10.7,4.4s7.7-1.5,10.7-4.4C63.9,57.8,65.5,54.2,65.5,50.1"/>
</svg>
