<?xml version="1.0" encoding="utf-8"?>
<!-- Generator: Adobe Illustrator 25.0.0, SVG Export Plug-In . SVG Version: 6.00 Build 0)  -->
<svg version="1.1" id="Warstwa_10
" xmlns="http://www.w3.org/2000/svg" xmlns:xlink="http://www.w3.org/1999/xlink" x="0px" y="0px"
	 viewBox="0 0 310 160" style="enable-background:new 0 0 310 160;" xml:space="preserve">
	 
<path class="st0" d="M155.2,156.5c-27.1-0.2-54.3,1.3-81.5-0.4c-37.1-2.3-66.2-32.5-70.2-69.3C-0.6,48.9,28.6,3.4,78.9,3
	c52.3-0.4,104.6-0.7,156.9,0.3c40.7,0.8,74.2,38.6,71.3,80.1c-2.9,41.7-33.1,71.6-75,73C206.5,157.2,180.9,156.5,155.2,156.5
	 M156,8.3C129.5,8,103,7,76.5,8.3C46,9.8,24.6,25.4,13.4,53.5C2.5,81.2,8,107,28,129c14.7,16.3,34,22.6,55.7,22.6
	c43-0.1,86,0,129-0.1c10.5,0,21,0.8,31.4-1.3c34.8-7.1,62.1-37.2,57.7-80.2c-3.2-30.8-32-62.4-69.2-61.8C207,8.6,181.5,8.3,156,8.3"
	/>
</svg>
